<?xml version="1.0" encoding="utf-8" standalone="no"?>
<!DOCTYPE svg PUBLIC "-//W3C//DTD SVG 1.1//EN"
  "http://www.w3.org/Graphics/SVG/1.1/DTD/svg11.dtd">
<svg height="504pt" version="1.1" viewBox="0 0 504 504" width="504pt" xmlns="http://www.w3.org/2000/svg" xmlns:xlink="http://www.w3.org/1999/xlink">
 <metadata>
  <rdf:RDF xmlns:cc="http://creativecommons.org/ns#" xmlns:dc="http://purl.org/dc/elements/1.1/" xmlns:rdf="http://www.w3.org/1999/02/22-rdf-syntax-ns#">
   <cc:Work>
    <dc:type rdf:resource="http://purl.org/dc/dcmitype/StillImage"/>
    <dc:date>2021-10-10T20:53:44.491351</dc:date>
    <dc:format>image/svg+xml</dc:format>
    <dc:creator>
     <cc:Agent>
      <dc:title>Matplotlib v3.4.3, https://matplotlib.org/</dc:title>
     </cc:Agent>
    </dc:creator>
   </cc:Work>
  </rdf:RDF>
 </metadata>
 <defs>
  <style type="text/css">*{stroke-linecap:butt;stroke-linejoin:round;}</style>
 </defs>
 <g id="figure_1">
  <g id="patch_1">
   <path d="M 0 504
L 504 504
L 504 0
L 0 0
z
" style="fill:#ffffff;"/>
  </g>
  <g id="axes_1">
   <g id="patch_2">
    <path d="M 63 441
L 453.6 441
L 453.6 60.48
L 63 60.48
z
" style="fill:#ffffff;"/>
   </g>
   <g id="PathCollection_1">
    <defs>
     <path d="M 8.660254 0
L -8.660254 -8.660254
L -8.660254 8.660254
z
" id="mf5d6eb46e3" style="stroke:#ffd700;"/>
    </defs>
    <g clip-path="url(#p27dc07d008)">
     <use style="fill:#ffd700;stroke:#ffd700;" x="289.855508" xlink:href="#mf5d6eb46e3" y="312.024259"/>
     <use style="fill:#ffd700;stroke:#ffd700;" x="132.077969" xlink:href="#mf5d6eb46e3" y="170.024474"/>
    </g>
   </g>
   <g id="patch_3">
    <path clip-path="url(#p27dc07d008)" d="M 226.744492 375.135275
L 258.3 154.24672
L 100.522461 248.913243
L 226.744492 375.135275
" style="fill:url(#hc9e77255b3);stroke:#ff0000;stroke-linejoin:miter;stroke-width:3;"/>
   </g>
   <g id="patch_4">
    <path clip-path="url(#p27dc07d008)" d="M 132.077969 375.135275
L 163.633476 185.802228
" style="fill:none;stroke:#0000ff;stroke-linejoin:miter;stroke-width:3;"/>
   </g>
   <g id="patch_5">
    <path clip-path="url(#p27dc07d008)" d="M 251.988898 375.135275
L 264.611102 375.135275
L 264.611102 122.691212
L 251.988898 122.691212
z
" style="fill:#ffc0cb;stroke:#cd853f;stroke-linejoin:miter;stroke-width:2;"/>
   </g>
   <g id="patch_6">
    <path clip-path="url(#p27dc07d008)" d="M 346.655422 375.135275
L 359.277625 375.135275
L 359.277625 248.913243
L 346.655422 248.913243
z
" style="fill:#ffc0cb;stroke:#cd853f;stroke-linejoin:miter;stroke-width:2;"/>
   </g>
   <g id="patch_7">
    <path clip-path="url(#p27dc07d008)" d="M 409.766438 375.135275
L 422.388641 375.135275
L 422.388641 343.579767
L 409.766438 343.579767
z
" style="fill:#ffc0cb;stroke:#cd853f;stroke-linejoin:miter;stroke-width:2;"/>
   </g>
   <g id="matplotlib.axis_1">
    <g id="xtick_1">
     <g id="line2d_1">
      <path clip-path="url(#p27dc07d008)" d="M 100.522461 441
L 100.522461 60.48
" style="fill:none;stroke:#808080;stroke-linecap:square;stroke-width:0.2;"/>
     </g>
     <g id="line2d_2">
      <defs>
       <path d="M 0 0
L 0 3.5
" id="m9ec355a144" style="stroke:#000000;stroke-width:0.8;"/>
      </defs>
      <g>
       <use style="stroke:#000000;stroke-width:0.8;" x="100.522461" xlink:href="#m9ec355a144" y="441"/>
      </g>
     </g>
     <g id="text_1">
      <!-- −2 -->
      <g transform="translate(93.151367 455.598437)scale(0.1 -0.1)">
       <defs>
        <path d="M 678 2272
L 4684 2272
L 4684 1741
L 678 1741
L 678 2272
z
" id="DejaVuSans-2212" transform="scale(0.015625)"/>
        <path d="M 1228 531
L 3431 531
L 3431 0
L 469 0
L 469 531
Q 828 903 1448 1529
Q 2069 2156 2228 2338
Q 2531 2678 2651 2914
Q 2772 3150 2772 3378
Q 2772 3750 2511 3984
Q 2250 4219 1831 4219
Q 1534 4219 1204 4116
Q 875 4013 500 3803
L 500 4441
Q 881 4594 1212 4672
Q 1544 4750 1819 4750
Q 2544 4750 2975 4387
Q 3406 4025 3406 3419
Q 3406 3131 3298 2873
Q 3191 2616 2906 2266
Q 2828 2175 2409 1742
Q 1991 1309 1228 531
z
" id="DejaVuSans-32" transform="scale(0.015625)"/>
       </defs>
       <use xlink:href="#DejaVuSans-2212"/>
       <use x="83.789062" xlink:href="#DejaVuSans-32"/>
      </g>
     </g>
    </g>
    <g id="xtick_2">
     <g id="line2d_3">
      <path clip-path="url(#p27dc07d008)" d="M 163.633476 441
L 163.633476 60.48
" style="fill:none;stroke:#808080;stroke-linecap:square;stroke-width:0.2;"/>
     </g>
     <g id="line2d_4">
      <g>
       <use style="stroke:#000000;stroke-width:0.8;" x="163.633476" xlink:href="#m9ec355a144" y="441"/>
      </g>
     </g>
     <g id="text_2">
      <!-- 0 -->
      <g transform="translate(160.452226 455.598437)scale(0.1 -0.1)">
       <defs>
        <path d="M 2034 4250
Q 1547 4250 1301 3770
Q 1056 3291 1056 2328
Q 1056 1369 1301 889
Q 1547 409 2034 409
Q 2525 409 2770 889
Q 3016 1369 3016 2328
Q 3016 3291 2770 3770
Q 2525 4250 2034 4250
z
M 2034 4750
Q 2819 4750 3233 4129
Q 3647 3509 3647 2328
Q 3647 1150 3233 529
Q 2819 -91 2034 -91
Q 1250 -91 836 529
Q 422 1150 422 2328
Q 422 3509 836 4129
Q 1250 4750 2034 4750
z
" id="DejaVuSans-30" transform="scale(0.015625)"/>
       </defs>
       <use xlink:href="#DejaVuSans-30"/>
      </g>
     </g>
    </g>
    <g id="xtick_3">
     <g id="line2d_5">
      <path clip-path="url(#p27dc07d008)" d="M 226.744492 441
L 226.744492 60.48
" style="fill:none;stroke:#808080;stroke-linecap:square;stroke-width:0.2;"/>
     </g>
     <g id="line2d_6">
      <g>
       <use style="stroke:#000000;stroke-width:0.8;" x="226.744492" xlink:href="#m9ec355a144" y="441"/>
      </g>
     </g>
     <g id="text_3">
      <!-- 2 -->
      <g transform="translate(223.563242 455.598437)scale(0.1 -0.1)">
       <use xlink:href="#DejaVuSans-32"/>
      </g>
     </g>
    </g>
    <g id="xtick_4">
     <g id="line2d_7">
      <path clip-path="url(#p27dc07d008)" d="M 289.855508 441
L 289.855508 60.48
" style="fill:none;stroke:#808080;stroke-linecap:square;stroke-width:0.2;"/>
     </g>
     <g id="line2d_8">
      <g>
       <use style="stroke:#000000;stroke-width:0.8;" x="289.855508" xlink:href="#m9ec355a144" y="441"/>
      </g>
     </g>
     <g id="text_4">
      <!-- 4 -->
      <g transform="translate(286.674258 455.598437)scale(0.1 -0.1)">
       <defs>
        <path d="M 2419 4116
L 825 1625
L 2419 1625
L 2419 4116
z
M 2253 4666
L 3047 4666
L 3047 1625
L 3713 1625
L 3713 1100
L 3047 1100
L 3047 0
L 2419 0
L 2419 1100
L 313 1100
L 313 1709
L 2253 4666
z
" id="DejaVuSans-34" transform="scale(0.015625)"/>
       </defs>
       <use xlink:href="#DejaVuSans-34"/>
      </g>
     </g>
    </g>
    <g id="xtick_5">
     <g id="line2d_9">
      <path clip-path="url(#p27dc07d008)" d="M 352.966524 441
L 352.966524 60.48
" style="fill:none;stroke:#808080;stroke-linecap:square;stroke-width:0.2;"/>
     </g>
     <g id="line2d_10">
      <g>
       <use style="stroke:#000000;stroke-width:0.8;" x="352.966524" xlink:href="#m9ec355a144" y="441"/>
      </g>
     </g>
     <g id="text_5">
      <!-- 6 -->
      <g transform="translate(349.785274 455.598437)scale(0.1 -0.1)">
       <defs>
        <path d="M 2113 2584
Q 1688 2584 1439 2293
Q 1191 2003 1191 1497
Q 1191 994 1439 701
Q 1688 409 2113 409
Q 2538 409 2786 701
Q 3034 994 3034 1497
Q 3034 2003 2786 2293
Q 2538 2584 2113 2584
z
M 3366 4563
L 3366 3988
Q 3128 4100 2886 4159
Q 2644 4219 2406 4219
Q 1781 4219 1451 3797
Q 1122 3375 1075 2522
Q 1259 2794 1537 2939
Q 1816 3084 2150 3084
Q 2853 3084 3261 2657
Q 3669 2231 3669 1497
Q 3669 778 3244 343
Q 2819 -91 2113 -91
Q 1303 -91 875 529
Q 447 1150 447 2328
Q 447 3434 972 4092
Q 1497 4750 2381 4750
Q 2619 4750 2861 4703
Q 3103 4656 3366 4563
z
" id="DejaVuSans-36" transform="scale(0.015625)"/>
       </defs>
       <use xlink:href="#DejaVuSans-36"/>
      </g>
     </g>
    </g>
    <g id="xtick_6">
     <g id="line2d_11">
      <path clip-path="url(#p27dc07d008)" d="M 416.077539 441
L 416.077539 60.48
" style="fill:none;stroke:#808080;stroke-linecap:square;stroke-width:0.2;"/>
     </g>
     <g id="line2d_12">
      <g>
       <use style="stroke:#000000;stroke-width:0.8;" x="416.077539" xlink:href="#m9ec355a144" y="441"/>
      </g>
     </g>
     <g id="text_6">
      <!-- 8 -->
      <g transform="translate(412.896289 455.598437)scale(0.1 -0.1)">
       <defs>
        <path d="M 2034 2216
Q 1584 2216 1326 1975
Q 1069 1734 1069 1313
Q 1069 891 1326 650
Q 1584 409 2034 409
Q 2484 409 2743 651
Q 3003 894 3003 1313
Q 3003 1734 2745 1975
Q 2488 2216 2034 2216
z
M 1403 2484
Q 997 2584 770 2862
Q 544 3141 544 3541
Q 544 4100 942 4425
Q 1341 4750 2034 4750
Q 2731 4750 3128 4425
Q 3525 4100 3525 3541
Q 3525 3141 3298 2862
Q 3072 2584 2669 2484
Q 3125 2378 3379 2068
Q 3634 1759 3634 1313
Q 3634 634 3220 271
Q 2806 -91 2034 -91
Q 1263 -91 848 271
Q 434 634 434 1313
Q 434 1759 690 2068
Q 947 2378 1403 2484
z
M 1172 3481
Q 1172 3119 1398 2916
Q 1625 2713 2034 2713
Q 2441 2713 2670 2916
Q 2900 3119 2900 3481
Q 2900 3844 2670 4047
Q 2441 4250 2034 4250
Q 1625 4250 1398 4047
Q 1172 3844 1172 3481
z
" id="DejaVuSans-38" transform="scale(0.015625)"/>
       </defs>
       <use xlink:href="#DejaVuSans-38"/>
      </g>
     </g>
    </g>
    <g id="text_7">
     <!-- variabele $\pi$ -->
     <g transform="translate(230.45 469.276563)scale(0.1 -0.1)">
      <defs>
       <path d="M 191 3500
L 800 3500
L 1894 563
L 2988 3500
L 3597 3500
L 2284 0
L 1503 0
L 191 3500
z
" id="DejaVuSans-76" transform="scale(0.015625)"/>
       <path d="M 2194 1759
Q 1497 1759 1228 1600
Q 959 1441 959 1056
Q 959 750 1161 570
Q 1363 391 1709 391
Q 2188 391 2477 730
Q 2766 1069 2766 1631
L 2766 1759
L 2194 1759
z
M 3341 1997
L 3341 0
L 2766 0
L 2766 531
Q 2569 213 2275 61
Q 1981 -91 1556 -91
Q 1019 -91 701 211
Q 384 513 384 1019
Q 384 1609 779 1909
Q 1175 2209 1959 2209
L 2766 2209
L 2766 2266
Q 2766 2663 2505 2880
Q 2244 3097 1772 3097
Q 1472 3097 1187 3025
Q 903 2953 641 2809
L 641 3341
Q 956 3463 1253 3523
Q 1550 3584 1831 3584
Q 2591 3584 2966 3190
Q 3341 2797 3341 1997
z
" id="DejaVuSans-61" transform="scale(0.015625)"/>
       <path d="M 2631 2963
Q 2534 3019 2420 3045
Q 2306 3072 2169 3072
Q 1681 3072 1420 2755
Q 1159 2438 1159 1844
L 1159 0
L 581 0
L 581 3500
L 1159 3500
L 1159 2956
Q 1341 3275 1631 3429
Q 1922 3584 2338 3584
Q 2397 3584 2469 3576
Q 2541 3569 2628 3553
L 2631 2963
z
" id="DejaVuSans-72" transform="scale(0.015625)"/>
       <path d="M 603 3500
L 1178 3500
L 1178 0
L 603 0
L 603 3500
z
M 603 4863
L 1178 4863
L 1178 4134
L 603 4134
L 603 4863
z
" id="DejaVuSans-69" transform="scale(0.015625)"/>
       <path d="M 3116 1747
Q 3116 2381 2855 2742
Q 2594 3103 2138 3103
Q 1681 3103 1420 2742
Q 1159 2381 1159 1747
Q 1159 1113 1420 752
Q 1681 391 2138 391
Q 2594 391 2855 752
Q 3116 1113 3116 1747
z
M 1159 2969
Q 1341 3281 1617 3432
Q 1894 3584 2278 3584
Q 2916 3584 3314 3078
Q 3713 2572 3713 1747
Q 3713 922 3314 415
Q 2916 -91 2278 -91
Q 1894 -91 1617 61
Q 1341 213 1159 525
L 1159 0
L 581 0
L 581 4863
L 1159 4863
L 1159 2969
z
" id="DejaVuSans-62" transform="scale(0.015625)"/>
       <path d="M 3597 1894
L 3597 1613
L 953 1613
Q 991 1019 1311 708
Q 1631 397 2203 397
Q 2534 397 2845 478
Q 3156 559 3463 722
L 3463 178
Q 3153 47 2828 -22
Q 2503 -91 2169 -91
Q 1331 -91 842 396
Q 353 884 353 1716
Q 353 2575 817 3079
Q 1281 3584 2069 3584
Q 2775 3584 3186 3129
Q 3597 2675 3597 1894
z
M 3022 2063
Q 3016 2534 2758 2815
Q 2500 3097 2075 3097
Q 1594 3097 1305 2825
Q 1016 2553 972 2059
L 3022 2063
z
" id="DejaVuSans-65" transform="scale(0.015625)"/>
       <path d="M 603 4863
L 1178 4863
L 1178 0
L 603 0
L 603 4863
z
" id="DejaVuSans-6c" transform="scale(0.015625)"/>
       <path id="DejaVuSans-20" transform="scale(0.015625)"/>
       <path d="M 584 3500
L 3938 3500
L 3825 2925
L 3384 2925
L 2966 775
Q 2922 550 2981 450
Q 3038 353 3209 353
Q 3256 353 3325 363
Q 3397 369 3419 372
L 3338 -44
Q 3222 -84 3103 -103
Q 2981 -122 2866 -122
Q 2491 -122 2388 81
Q 2284 288 2391 838
L 2797 2925
L 1506 2925
L 938 0
L 350 0
L 919 2925
L 472 2925
L 584 3500
z
" id="DejaVuSans-Oblique-3c0" transform="scale(0.015625)"/>
      </defs>
      <use transform="translate(0 0.015625)" xlink:href="#DejaVuSans-76"/>
      <use transform="translate(59.179688 0.015625)" xlink:href="#DejaVuSans-61"/>
      <use transform="translate(120.458984 0.015625)" xlink:href="#DejaVuSans-72"/>
      <use transform="translate(161.572266 0.015625)" xlink:href="#DejaVuSans-69"/>
      <use transform="translate(189.355469 0.015625)" xlink:href="#DejaVuSans-61"/>
      <use transform="translate(250.634766 0.015625)" xlink:href="#DejaVuSans-62"/>
      <use transform="translate(314.111328 0.015625)" xlink:href="#DejaVuSans-65"/>
      <use transform="translate(375.634766 0.015625)" xlink:href="#DejaVuSans-6c"/>
      <use transform="translate(403.417969 0.015625)" xlink:href="#DejaVuSans-65"/>
      <use transform="translate(464.941406 0.015625)" xlink:href="#DejaVuSans-20"/>
      <use transform="translate(496.728516 0.015625)" xlink:href="#DejaVuSans-Oblique-3c0"/>
     </g>
    </g>
   </g>
   <g id="matplotlib.axis_2">
    <g id="ytick_1">
     <g id="line2d_13">
      <path clip-path="url(#p27dc07d008)" d="M 63 438.246291
L 453.6 438.246291
" style="fill:none;stroke:#808080;stroke-linecap:square;stroke-width:0.2;"/>
     </g>
     <g id="line2d_14">
      <defs>
       <path d="M 0 0
L -3.5 0
" id="mb67ad8f4f5" style="stroke:#000000;stroke-width:0.8;"/>
      </defs>
      <g>
       <use style="stroke:#000000;stroke-width:0.8;" x="63" xlink:href="#mb67ad8f4f5" y="438.246291"/>
      </g>
     </g>
     <g id="text_8">
      <!-- −2 -->
      <g transform="translate(41.257812 442.045509)scale(0.1 -0.1)">
       <use xlink:href="#DejaVuSans-2212"/>
       <use x="83.789062" xlink:href="#DejaVuSans-32"/>
      </g>
     </g>
    </g>
    <g id="ytick_2">
     <g id="line2d_15">
      <path clip-path="url(#p27dc07d008)" d="M 63 375.135275
L 453.6 375.135275
" style="fill:none;stroke:#808080;stroke-linecap:square;stroke-width:0.2;"/>
     </g>
     <g id="line2d_16">
      <g>
       <use style="stroke:#000000;stroke-width:0.8;" x="63" xlink:href="#mb67ad8f4f5" y="375.135275"/>
      </g>
     </g>
     <g id="text_9">
      <!-- 0 -->
      <g transform="translate(49.6375 378.934494)scale(0.1 -0.1)">
       <use xlink:href="#DejaVuSans-30"/>
      </g>
     </g>
    </g>
    <g id="ytick_3">
     <g id="line2d_17">
      <path clip-path="url(#p27dc07d008)" d="M 63 312.024259
L 453.6 312.024259
" style="fill:none;stroke:#808080;stroke-linecap:square;stroke-width:0.2;"/>
     </g>
     <g id="line2d_18">
      <g>
       <use style="stroke:#000000;stroke-width:0.8;" x="63" xlink:href="#mb67ad8f4f5" y="312.024259"/>
      </g>
     </g>
     <g id="text_10">
      <!-- 2 -->
      <g transform="translate(49.6375 315.823478)scale(0.1 -0.1)">
       <use xlink:href="#DejaVuSans-32"/>
      </g>
     </g>
    </g>
    <g id="ytick_4">
     <g id="line2d_19">
      <path clip-path="url(#p27dc07d008)" d="M 63 248.913243
L 453.6 248.913243
" style="fill:none;stroke:#808080;stroke-linecap:square;stroke-width:0.2;"/>
     </g>
     <g id="line2d_20">
      <g>
       <use style="stroke:#000000;stroke-width:0.8;" x="63" xlink:href="#mb67ad8f4f5" y="248.913243"/>
      </g>
     </g>
     <g id="text_11">
      <!-- 4 -->
      <g transform="translate(49.6375 252.712462)scale(0.1 -0.1)">
       <use xlink:href="#DejaVuSans-34"/>
      </g>
     </g>
    </g>
    <g id="ytick_5">
     <g id="line2d_21">
      <path clip-path="url(#p27dc07d008)" d="M 63 185.802228
L 453.6 185.802228
" style="fill:none;stroke:#808080;stroke-linecap:square;stroke-width:0.2;"/>
     </g>
     <g id="line2d_22">
      <g>
       <use style="stroke:#000000;stroke-width:0.8;" x="63" xlink:href="#mb67ad8f4f5" y="185.802228"/>
      </g>
     </g>
     <g id="text_12">
      <!-- 6 -->
      <g transform="translate(49.6375 189.601447)scale(0.1 -0.1)">
       <use xlink:href="#DejaVuSans-36"/>
      </g>
     </g>
    </g>
    <g id="ytick_6">
     <g id="line2d_23">
      <path clip-path="url(#p27dc07d008)" d="M 63 122.691212
L 453.6 122.691212
" style="fill:none;stroke:#808080;stroke-linecap:square;stroke-width:0.2;"/>
     </g>
     <g id="line2d_24">
      <g>
       <use style="stroke:#000000;stroke-width:0.8;" x="63" xlink:href="#mb67ad8f4f5" y="122.691212"/>
      </g>
     </g>
     <g id="text_13">
      <!-- 8 -->
      <g transform="translate(49.6375 126.490431)scale(0.1 -0.1)">
       <use xlink:href="#DejaVuSans-38"/>
      </g>
     </g>
    </g>
    <g id="text_14">
     <!-- verticale as -->
     <g transform="translate(35.178125 279.717344)rotate(-90)scale(0.1 -0.1)">
      <defs>
       <path d="M 1172 4494
L 1172 3500
L 2356 3500
L 2356 3053
L 1172 3053
L 1172 1153
Q 1172 725 1289 603
Q 1406 481 1766 481
L 2356 481
L 2356 0
L 1766 0
Q 1100 0 847 248
Q 594 497 594 1153
L 594 3053
L 172 3053
L 172 3500
L 594 3500
L 594 4494
L 1172 4494
z
" id="DejaVuSans-74" transform="scale(0.015625)"/>
       <path d="M 3122 3366
L 3122 2828
Q 2878 2963 2633 3030
Q 2388 3097 2138 3097
Q 1578 3097 1268 2742
Q 959 2388 959 1747
Q 959 1106 1268 751
Q 1578 397 2138 397
Q 2388 397 2633 464
Q 2878 531 3122 666
L 3122 134
Q 2881 22 2623 -34
Q 2366 -91 2075 -91
Q 1284 -91 818 406
Q 353 903 353 1747
Q 353 2603 823 3093
Q 1294 3584 2113 3584
Q 2378 3584 2631 3529
Q 2884 3475 3122 3366
z
" id="DejaVuSans-63" transform="scale(0.015625)"/>
       <path d="M 2834 3397
L 2834 2853
Q 2591 2978 2328 3040
Q 2066 3103 1784 3103
Q 1356 3103 1142 2972
Q 928 2841 928 2578
Q 928 2378 1081 2264
Q 1234 2150 1697 2047
L 1894 2003
Q 2506 1872 2764 1633
Q 3022 1394 3022 966
Q 3022 478 2636 193
Q 2250 -91 1575 -91
Q 1294 -91 989 -36
Q 684 19 347 128
L 347 722
Q 666 556 975 473
Q 1284 391 1588 391
Q 1994 391 2212 530
Q 2431 669 2431 922
Q 2431 1156 2273 1281
Q 2116 1406 1581 1522
L 1381 1569
Q 847 1681 609 1914
Q 372 2147 372 2553
Q 372 3047 722 3315
Q 1072 3584 1716 3584
Q 2034 3584 2315 3537
Q 2597 3491 2834 3397
z
" id="DejaVuSans-73" transform="scale(0.015625)"/>
      </defs>
      <use xlink:href="#DejaVuSans-76"/>
      <use x="59.179688" xlink:href="#DejaVuSans-65"/>
      <use x="120.703125" xlink:href="#DejaVuSans-72"/>
      <use x="161.816406" xlink:href="#DejaVuSans-74"/>
      <use x="201.025391" xlink:href="#DejaVuSans-69"/>
      <use x="228.808594" xlink:href="#DejaVuSans-63"/>
      <use x="283.789062" xlink:href="#DejaVuSans-61"/>
      <use x="345.068359" xlink:href="#DejaVuSans-6c"/>
      <use x="372.851562" xlink:href="#DejaVuSans-65"/>
      <use x="434.375" xlink:href="#DejaVuSans-20"/>
      <use x="466.162109" xlink:href="#DejaVuSans-61"/>
      <use x="527.441406" xlink:href="#DejaVuSans-73"/>
     </g>
    </g>
   </g>
   <g id="line2d_25">
    <path clip-path="url(#p27dc07d008)" d="M 63 375.135275
L 453.6 375.135275
" style="fill:none;stroke:#a9a9a9;stroke-linecap:square;stroke-width:1.2;"/>
   </g>
   <g id="line2d_26">
    <path clip-path="url(#p27dc07d008)" d="M 163.633476 441
L 163.633476 60.48
" style="fill:none;stroke:#a9a9a9;stroke-linecap:square;stroke-width:1.2;"/>
   </g>
   <g id="line2d_27">
    <path clip-path="url(#p27dc07d008)" d="M 100.522461 334.99327
L 102.116173 343.166677
L 103.709886 350.954789
L 105.303598 358.353385
L 106.897311 365.358828
L 108.491023 371.968073
L 110.084736 378.178675
L 111.678448 383.988795
L 113.272161 389.397204
L 114.865873 394.403289
L 116.459586 399.007049
L 118.053298 403.209102
L 119.647011 407.010679
L 121.240723 410.41362
L 122.834436 413.420373
L 124.428148 416.033984
L 126.021861 418.258094
L 127.615574 420.096924
L 129.209286 421.555267
L 130.802999 422.638479
L 132.396711 423.352458
L 133.990424 423.703636
L 135.584136 423.698959
L 137.177849 423.345868
L 138.771561 422.652285
L 140.365274 421.626588
L 141.958986 420.277593
L 143.552699 418.614526
L 145.146411 416.647009
L 146.740124 414.385026
L 148.333836 411.838902
L 149.927549 409.019278
L 151.521261 405.937079
L 153.114974 402.603492
L 154.708686 399.029932
L 156.302399 395.228017
L 157.896111 391.209537
L 159.489824 386.986423
L 161.083536 382.570716
L 162.677249 377.974542
L 164.270961 373.210072
L 165.864674 368.289497
L 167.458386 363.224997
L 169.052099 358.028708
L 170.645812 352.71269
L 172.239524 347.2889
L 173.833237 341.769157
L 175.426949 336.165116
L 177.020662 330.488236
L 178.614374 324.749751
L 180.208087 318.960642
L 181.801799 313.131607
L 183.395512 307.273037
L 184.989224 301.394988
L 186.582937 295.507153
L 188.176649 289.618842
L 189.770362 283.738954
L 191.364074 277.875956
L 192.957787 272.037863
L 194.551499 266.232214
L 196.145212 260.466056
L 197.738924 254.745923
L 199.332637 249.077824
L 200.926349 243.467222
L 202.520062 237.919025
L 204.113774 232.437569
L 205.707487 227.026612
L 207.301199 221.689319
L 208.894912 216.428258
L 210.488624 211.245393
L 212.082337 206.142075
L 213.676049 201.119046
L 215.269762 196.176428
L 216.863475 191.31373
L 218.457187 186.529847
L 220.0509 181.823062
L 221.644612 177.191049
L 223.238325 172.630884
L 224.832037 168.139048
L 226.42575 163.711435
L 228.019462 159.343367
L 229.613175 155.029604
L 231.206887 150.764355
L 232.8006 146.541297
L 234.394312 142.353587
L 235.988025 138.193882
L 237.581737 134.054357
L 239.17545 129.926725
L 240.769162 125.802259
L 242.362875 121.671811
L 243.956587 117.525841
L 245.5503 113.354435
L 247.144012 109.147336
L 248.737725 104.893965
L 250.331437 100.583452
L 251.92515 96.204662
L 253.518862 91.746223
L 255.112575 87.196556
L 256.706287 82.543905
L 258.3 77.776364
" style="fill:none;stroke:#008000;stroke-linecap:square;stroke-width:2;"/>
   </g>
   <g id="patch_8">
    <path d="M 63 441
L 63 60.48
" style="fill:none;stroke:#000000;stroke-linecap:square;stroke-linejoin:miter;stroke-width:0.8;"/>
   </g>
   <g id="patch_9">
    <path d="M 453.6 441
L 453.6 60.48
" style="fill:none;stroke:#000000;stroke-linecap:square;stroke-linejoin:miter;stroke-width:0.8;"/>
   </g>
   <g id="patch_10">
    <path d="M 63 441
L 453.6 441
" style="fill:none;stroke:#000000;stroke-linecap:square;stroke-linejoin:miter;stroke-width:0.8;"/>
   </g>
   <g id="patch_11">
    <path d="M 63 60.48
L 453.6 60.48
" style="fill:none;stroke:#000000;stroke-linecap:square;stroke-linejoin:miter;stroke-width:0.8;"/>
   </g>
   <g id="text_15">
    <!-- punt 1: $\theta_\pi$ -->
    <g style="fill:#a52a2a;" transform="translate(263.060593 331.374105)rotate(-30)scale(0.12 -0.12)">
     <defs>
      <path d="M 1656 506
L 1656 -1331
L 538 -1331
L 538 3500
L 1656 3500
L 1656 2988
Q 1888 3294 2169 3439
Q 2450 3584 2816 3584
Q 3463 3584 3878 3070
Q 4294 2556 4294 1747
Q 4294 938 3878 423
Q 3463 -91 2816 -91
Q 2450 -91 2169 54
Q 1888 200 1656 506
z
M 2400 2772
Q 2041 2772 1848 2508
Q 1656 2244 1656 1747
Q 1656 1250 1848 986
Q 2041 722 2400 722
Q 2759 722 2948 984
Q 3138 1247 3138 1747
Q 3138 2247 2948 2509
Q 2759 2772 2400 2772
z
" id="DejaVuSans-Bold-70" transform="scale(0.015625)"/>
      <path d="M 500 1363
L 500 3500
L 1625 3500
L 1625 3150
Q 1625 2866 1622 2436
Q 1619 2006 1619 1863
Q 1619 1441 1641 1255
Q 1663 1069 1716 984
Q 1784 875 1895 815
Q 2006 756 2150 756
Q 2500 756 2700 1025
Q 2900 1294 2900 1772
L 2900 3500
L 4019 3500
L 4019 0
L 2900 0
L 2900 506
Q 2647 200 2364 54
Q 2081 -91 1741 -91
Q 1134 -91 817 281
Q 500 653 500 1363
z
" id="DejaVuSans-Bold-75" transform="scale(0.015625)"/>
      <path d="M 4056 2131
L 4056 0
L 2931 0
L 2931 347
L 2931 1631
Q 2931 2084 2911 2256
Q 2891 2428 2841 2509
Q 2775 2619 2662 2680
Q 2550 2741 2406 2741
Q 2056 2741 1856 2470
Q 1656 2200 1656 1722
L 1656 0
L 538 0
L 538 3500
L 1656 3500
L 1656 2988
Q 1909 3294 2193 3439
Q 2478 3584 2822 3584
Q 3428 3584 3742 3212
Q 4056 2841 4056 2131
z
" id="DejaVuSans-Bold-6e" transform="scale(0.015625)"/>
      <path d="M 1759 4494
L 1759 3500
L 2913 3500
L 2913 2700
L 1759 2700
L 1759 1216
Q 1759 972 1856 886
Q 1953 800 2241 800
L 2816 800
L 2816 0
L 1856 0
Q 1194 0 917 276
Q 641 553 641 1216
L 641 2700
L 84 2700
L 84 3500
L 641 3500
L 641 4494
L 1759 4494
z
" id="DejaVuSans-Bold-74" transform="scale(0.015625)"/>
      <path id="DejaVuSans-Bold-20" transform="scale(0.015625)"/>
      <path d="M 750 831
L 1813 831
L 1813 3847
L 722 3622
L 722 4441
L 1806 4666
L 2950 4666
L 2950 831
L 4013 831
L 4013 0
L 750 0
L 750 831
z
" id="DejaVuSans-Bold-31" transform="scale(0.015625)"/>
      <path d="M 716 3500
L 1844 3500
L 1844 2291
L 716 2291
L 716 3500
z
M 716 1209
L 1844 1209
L 1844 0
L 716 0
L 716 1209
z
" id="DejaVuSans-Bold-3a" transform="scale(0.015625)"/>
      <path d="M 2913 2219
L 925 2219
Q 791 1284 928 888
Q 1100 400 1566 400
Q 2034 400 2391 891
Q 2703 1322 2913 2219
z
M 3009 2750
Q 3094 3638 2984 3950
Q 2813 4444 2353 4444
Q 1875 4444 1525 3956
Q 1250 3563 1034 2750
L 3009 2750
z
M 2444 4913
Q 3194 4913 3494 4250
Q 3794 3591 3566 2422
Q 3341 1256 2781 594
Q 2225 -72 1475 -72
Q 722 -72 425 594
Q 128 1256 353 2422
Q 581 3591 1134 4250
Q 1691 4913 2444 4913
z
" id="DejaVuSans-Oblique-3b8" transform="scale(0.015625)"/>
     </defs>
     <use transform="translate(0 0.234375)" xlink:href="#DejaVuSans-Bold-70"/>
     <use transform="translate(71.582031 0.234375)" xlink:href="#DejaVuSans-Bold-75"/>
     <use transform="translate(142.773438 0.234375)" xlink:href="#DejaVuSans-Bold-6e"/>
     <use transform="translate(213.964844 0.234375)" xlink:href="#DejaVuSans-Bold-74"/>
     <use transform="translate(261.767578 0.234375)" xlink:href="#DejaVuSans-Bold-20"/>
     <use transform="translate(296.582031 0.234375)" xlink:href="#DejaVuSans-Bold-31"/>
     <use transform="translate(366.162109 0.234375)" xlink:href="#DejaVuSans-Bold-3a"/>
     <use transform="translate(406.152344 0.234375)" xlink:href="#DejaVuSans-Bold-20"/>
     <use transform="translate(440.966797 0.234375)" xlink:href="#DejaVuSans-Oblique-3b8"/>
     <use transform="translate(502.148438 -16.171875)scale(0.7)" xlink:href="#DejaVuSans-Oblique-3c0"/>
    </g>
   </g>
   <g id="text_16">
    <!-- punt 2: $\omega_3$ -->
    <g style="fill:#a52a2a;" transform="translate(103.999414 190.030991)rotate(-30)scale(0.12 -0.12)">
     <defs>
      <path d="M 1844 884
L 3897 884
L 3897 0
L 506 0
L 506 884
L 2209 2388
Q 2438 2594 2547 2791
Q 2656 2988 2656 3200
Q 2656 3528 2436 3728
Q 2216 3928 1850 3928
Q 1569 3928 1234 3808
Q 900 3688 519 3450
L 519 4475
Q 925 4609 1322 4679
Q 1719 4750 2100 4750
Q 2938 4750 3402 4381
Q 3866 4013 3866 3353
Q 3866 2972 3669 2642
Q 3472 2313 2841 1759
L 1844 884
z
" id="DejaVuSans-Bold-32" transform="scale(0.015625)"/>
      <path d="M 1369 -91
Q 72 -91 434 1766
Q 575 2500 1256 3500
L 1875 3500
Q 1231 2500 1088 1750
Q 819 397 1519 397
Q 2166 397 2478 2078
L 3009 2078
Q 2669 388 3316 397
Q 4013 403 4275 1750
Q 4419 2500 4169 3500
L 4788 3500
Q 5075 2500 4934 1766
Q 4578 -94 3278 -91
Q 2428 -88 2503 844
Q 2194 -91 1369 -91
z
" id="DejaVuSans-Oblique-3c9" transform="scale(0.015625)"/>
      <path d="M 2597 2516
Q 3050 2419 3304 2112
Q 3559 1806 3559 1356
Q 3559 666 3084 287
Q 2609 -91 1734 -91
Q 1441 -91 1130 -33
Q 819 25 488 141
L 488 750
Q 750 597 1062 519
Q 1375 441 1716 441
Q 2309 441 2620 675
Q 2931 909 2931 1356
Q 2931 1769 2642 2001
Q 2353 2234 1838 2234
L 1294 2234
L 1294 2753
L 1863 2753
Q 2328 2753 2575 2939
Q 2822 3125 2822 3475
Q 2822 3834 2567 4026
Q 2313 4219 1838 4219
Q 1578 4219 1281 4162
Q 984 4106 628 3988
L 628 4550
Q 988 4650 1302 4700
Q 1616 4750 1894 4750
Q 2613 4750 3031 4423
Q 3450 4097 3450 3541
Q 3450 3153 3228 2886
Q 3006 2619 2597 2516
z
" id="DejaVuSans-33" transform="scale(0.015625)"/>
     </defs>
     <use transform="translate(0 0.78125)" xlink:href="#DejaVuSans-Bold-70"/>
     <use transform="translate(71.582031 0.78125)" xlink:href="#DejaVuSans-Bold-75"/>
     <use transform="translate(142.773438 0.78125)" xlink:href="#DejaVuSans-Bold-6e"/>
     <use transform="translate(213.964844 0.78125)" xlink:href="#DejaVuSans-Bold-74"/>
     <use transform="translate(261.767578 0.78125)" xlink:href="#DejaVuSans-Bold-20"/>
     <use transform="translate(296.582031 0.78125)" xlink:href="#DejaVuSans-Bold-32"/>
     <use transform="translate(366.162109 0.78125)" xlink:href="#DejaVuSans-Bold-3a"/>
     <use transform="translate(406.152344 0.78125)" xlink:href="#DejaVuSans-Bold-20"/>
     <use transform="translate(440.966797 0.78125)" xlink:href="#DejaVuSans-Oblique-3c9"/>
     <use transform="translate(524.707031 -15.625)scale(0.7)" xlink:href="#DejaVuSans-33"/>
    </g>
   </g>
   <g id="text_17">
    <!-- Kunst -->
    <g transform="translate(241.5825 54.48)scale(0.12 -0.12)">
     <defs>
      <path d="M 628 4666
L 1259 4666
L 1259 2694
L 3353 4666
L 4166 4666
L 1850 2491
L 4331 0
L 3500 0
L 1259 2247
L 1259 0
L 628 0
L 628 4666
z
" id="DejaVuSans-4b" transform="scale(0.015625)"/>
      <path d="M 544 1381
L 544 3500
L 1119 3500
L 1119 1403
Q 1119 906 1312 657
Q 1506 409 1894 409
Q 2359 409 2629 706
Q 2900 1003 2900 1516
L 2900 3500
L 3475 3500
L 3475 0
L 2900 0
L 2900 538
Q 2691 219 2414 64
Q 2138 -91 1772 -91
Q 1169 -91 856 284
Q 544 659 544 1381
z
M 1991 3584
L 1991 3584
z
" id="DejaVuSans-75" transform="scale(0.015625)"/>
      <path d="M 3513 2113
L 3513 0
L 2938 0
L 2938 2094
Q 2938 2591 2744 2837
Q 2550 3084 2163 3084
Q 1697 3084 1428 2787
Q 1159 2491 1159 1978
L 1159 0
L 581 0
L 581 3500
L 1159 3500
L 1159 2956
Q 1366 3272 1645 3428
Q 1925 3584 2291 3584
Q 2894 3584 3203 3211
Q 3513 2838 3513 2113
z
" id="DejaVuSans-6e" transform="scale(0.015625)"/>
     </defs>
     <use xlink:href="#DejaVuSans-4b"/>
     <use x="60.576172" xlink:href="#DejaVuSans-75"/>
     <use x="123.955078" xlink:href="#DejaVuSans-6e"/>
     <use x="187.333984" xlink:href="#DejaVuSans-73"/>
     <use x="239.433594" xlink:href="#DejaVuSans-74"/>
    </g>
   </g>
   <g id="legend_1">
    <g id="patch_12">
     <path d="M 341.470313 141.8925
L 446.6 141.8925
Q 448.6 141.8925 448.6 139.8925
L 448.6 67.48
Q 448.6 65.48 446.6 65.48
L 341.470313 65.48
Q 339.470313 65.48 339.470313 67.48
L 339.470313 139.8925
Q 339.470313 141.8925 341.470313 141.8925
z
" style="fill:#ffffff;opacity:0.8;stroke:#cccccc;stroke-linejoin:miter;"/>
    </g>
    <g id="line2d_28">
     <path d="M 343.470313 73.578438
L 363.470313 73.578438
" style="fill:none;stroke:#008000;stroke-linecap:square;stroke-width:2;"/>
    </g>
    <g id="line2d_29"/>
    <g id="text_18">
     <!-- sinus parabool -->
     <g transform="translate(371.470313 77.078438)scale(0.1 -0.1)">
      <defs>
       <path d="M 1159 525
L 1159 -1331
L 581 -1331
L 581 3500
L 1159 3500
L 1159 2969
Q 1341 3281 1617 3432
Q 1894 3584 2278 3584
Q 2916 3584 3314 3078
Q 3713 2572 3713 1747
Q 3713 922 3314 415
Q 2916 -91 2278 -91
Q 1894 -91 1617 61
Q 1341 213 1159 525
z
M 3116 1747
Q 3116 2381 2855 2742
Q 2594 3103 2138 3103
Q 1681 3103 1420 2742
Q 1159 2381 1159 1747
Q 1159 1113 1420 752
Q 1681 391 2138 391
Q 2594 391 2855 752
Q 3116 1113 3116 1747
z
" id="DejaVuSans-70" transform="scale(0.015625)"/>
       <path d="M 1959 3097
Q 1497 3097 1228 2736
Q 959 2375 959 1747
Q 959 1119 1226 758
Q 1494 397 1959 397
Q 2419 397 2687 759
Q 2956 1122 2956 1747
Q 2956 2369 2687 2733
Q 2419 3097 1959 3097
z
M 1959 3584
Q 2709 3584 3137 3096
Q 3566 2609 3566 1747
Q 3566 888 3137 398
Q 2709 -91 1959 -91
Q 1206 -91 779 398
Q 353 888 353 1747
Q 353 2609 779 3096
Q 1206 3584 1959 3584
z
" id="DejaVuSans-6f" transform="scale(0.015625)"/>
      </defs>
      <use xlink:href="#DejaVuSans-73"/>
      <use x="52.099609" xlink:href="#DejaVuSans-69"/>
      <use x="79.882812" xlink:href="#DejaVuSans-6e"/>
      <use x="143.261719" xlink:href="#DejaVuSans-75"/>
      <use x="206.640625" xlink:href="#DejaVuSans-73"/>
      <use x="258.740234" xlink:href="#DejaVuSans-20"/>
      <use x="290.527344" xlink:href="#DejaVuSans-70"/>
      <use x="354.003906" xlink:href="#DejaVuSans-61"/>
      <use x="415.283203" xlink:href="#DejaVuSans-72"/>
      <use x="456.396484" xlink:href="#DejaVuSans-61"/>
      <use x="517.675781" xlink:href="#DejaVuSans-62"/>
      <use x="581.152344" xlink:href="#DejaVuSans-6f"/>
      <use x="642.333984" xlink:href="#DejaVuSans-6f"/>
      <use x="703.515625" xlink:href="#DejaVuSans-6c"/>
     </g>
    </g>
    <g id="patch_13">
     <path d="M 343.470313 91.756563
L 363.470313 91.756563
L 363.470313 84.756563
L 343.470313 84.756563
z
" style="fill:url(#hc9e77255b3);stroke:#ff0000;stroke-linejoin:miter;stroke-width:3;"/>
    </g>
    <g id="text_19">
     <!-- rood vlak -->
     <g transform="translate(371.470313 91.756563)scale(0.1 -0.1)">
      <defs>
       <path d="M 2906 2969
L 2906 4863
L 3481 4863
L 3481 0
L 2906 0
L 2906 525
Q 2725 213 2448 61
Q 2172 -91 1784 -91
Q 1150 -91 751 415
Q 353 922 353 1747
Q 353 2572 751 3078
Q 1150 3584 1784 3584
Q 2172 3584 2448 3432
Q 2725 3281 2906 2969
z
M 947 1747
Q 947 1113 1208 752
Q 1469 391 1925 391
Q 2381 391 2643 752
Q 2906 1113 2906 1747
Q 2906 2381 2643 2742
Q 2381 3103 1925 3103
Q 1469 3103 1208 2742
Q 947 2381 947 1747
z
" id="DejaVuSans-64" transform="scale(0.015625)"/>
       <path d="M 581 4863
L 1159 4863
L 1159 1991
L 2875 3500
L 3609 3500
L 1753 1863
L 3688 0
L 2938 0
L 1159 1709
L 1159 0
L 581 0
L 581 4863
z
" id="DejaVuSans-6b" transform="scale(0.015625)"/>
      </defs>
      <use xlink:href="#DejaVuSans-72"/>
      <use x="38.863281" xlink:href="#DejaVuSans-6f"/>
      <use x="100.044922" xlink:href="#DejaVuSans-6f"/>
      <use x="161.226562" xlink:href="#DejaVuSans-64"/>
      <use x="224.703125" xlink:href="#DejaVuSans-20"/>
      <use x="256.490234" xlink:href="#DejaVuSans-76"/>
      <use x="315.669922" xlink:href="#DejaVuSans-6c"/>
      <use x="343.453125" xlink:href="#DejaVuSans-61"/>
      <use x="404.732422" xlink:href="#DejaVuSans-6b"/>
     </g>
    </g>
    <g id="patch_14">
     <path d="M 343.470313 106.43625
L 363.470313 106.43625
L 363.470313 99.43625
L 343.470313 99.43625
z
" style="fill:none;stroke:#0000ff;stroke-linejoin:miter;stroke-width:3;"/>
    </g>
    <g id="text_20">
     <!-- rechte $\alpha$-lijn -->
     <g transform="translate(371.470313 106.43625)scale(0.1 -0.1)">
      <defs>
       <path d="M 3513 2113
L 3513 0
L 2938 0
L 2938 2094
Q 2938 2591 2744 2837
Q 2550 3084 2163 3084
Q 1697 3084 1428 2787
Q 1159 2491 1159 1978
L 1159 0
L 581 0
L 581 4863
L 1159 4863
L 1159 2956
Q 1366 3272 1645 3428
Q 1925 3584 2291 3584
Q 2894 3584 3203 3211
Q 3513 2838 3513 2113
z
" id="DejaVuSans-68" transform="scale(0.015625)"/>
       <path d="M 2619 1628
L 2622 2350
Q 2625 3088 2069 3091
Q 1653 3094 1394 2747
Q 1069 2319 959 1747
Q 825 1059 994 731
Q 1169 397 1547 397
Q 1966 397 2319 1063
L 2619 1628
z
M 2166 3578
Q 3141 3594 3128 2584
Q 3128 2584 3616 3500
L 4128 3500
L 3119 1603
L 3109 919
Q 3109 766 3194 638
Q 3291 488 3391 488
L 3669 488
L 3575 0
L 3228 0
Q 2934 0 2722 263
Q 2622 394 2619 669
Q 2416 334 2066 50
Q 1900 -81 1453 -78
Q 722 -72 456 397
Q 184 884 353 1747
Q 534 2675 1009 3097
Q 1544 3569 2166 3578
z
" id="DejaVuSans-Oblique-3b1" transform="scale(0.015625)"/>
       <path d="M 313 2009
L 1997 2009
L 1997 1497
L 313 1497
L 313 2009
z
" id="DejaVuSans-2d" transform="scale(0.015625)"/>
       <path d="M 603 3500
L 1178 3500
L 1178 -63
Q 1178 -731 923 -1031
Q 669 -1331 103 -1331
L -116 -1331
L -116 -844
L 38 -844
Q 366 -844 484 -692
Q 603 -541 603 -63
L 603 3500
z
M 603 4863
L 1178 4863
L 1178 4134
L 603 4134
L 603 4863
z
" id="DejaVuSans-6a" transform="scale(0.015625)"/>
      </defs>
      <use transform="translate(0 0.015625)" xlink:href="#DejaVuSans-72"/>
      <use transform="translate(41.113281 0.015625)" xlink:href="#DejaVuSans-65"/>
      <use transform="translate(102.636719 0.015625)" xlink:href="#DejaVuSans-63"/>
      <use transform="translate(157.617188 0.015625)" xlink:href="#DejaVuSans-68"/>
      <use transform="translate(220.996094 0.015625)" xlink:href="#DejaVuSans-74"/>
      <use transform="translate(260.205078 0.015625)" xlink:href="#DejaVuSans-65"/>
      <use transform="translate(321.728516 0.015625)" xlink:href="#DejaVuSans-20"/>
      <use transform="translate(353.515625 0.015625)" xlink:href="#DejaVuSans-Oblique-3b1"/>
      <use transform="translate(419.433594 0.015625)" xlink:href="#DejaVuSans-2d"/>
      <use transform="translate(455.517578 0.015625)" xlink:href="#DejaVuSans-6c"/>
      <use transform="translate(483.300781 0.015625)" xlink:href="#DejaVuSans-69"/>
      <use transform="translate(511.083984 0.015625)" xlink:href="#DejaVuSans-6a"/>
      <use transform="translate(538.867188 0.015625)" xlink:href="#DejaVuSans-6e"/>
     </g>
    </g>
    <g id="PathCollection_2">
     <g>
      <use style="fill:#ffd700;stroke:#ffd700;" x="353.470313" xlink:href="#mf5d6eb46e3" y="118.509688"/>
     </g>
    </g>
    <g id="text_21">
     <!-- twee punten -->
     <g transform="translate(371.470313 121.134688)scale(0.1 -0.1)">
      <defs>
       <path d="M 269 3500
L 844 3500
L 1563 769
L 2278 3500
L 2956 3500
L 3675 769
L 4391 3500
L 4966 3500
L 4050 0
L 3372 0
L 2619 2869
L 1863 0
L 1184 0
L 269 3500
z
" id="DejaVuSans-77" transform="scale(0.015625)"/>
      </defs>
      <use xlink:href="#DejaVuSans-74"/>
      <use x="39.208984" xlink:href="#DejaVuSans-77"/>
      <use x="120.996094" xlink:href="#DejaVuSans-65"/>
      <use x="182.519531" xlink:href="#DejaVuSans-65"/>
      <use x="244.042969" xlink:href="#DejaVuSans-20"/>
      <use x="275.830078" xlink:href="#DejaVuSans-70"/>
      <use x="339.306641" xlink:href="#DejaVuSans-75"/>
      <use x="402.685547" xlink:href="#DejaVuSans-6e"/>
      <use x="466.064453" xlink:href="#DejaVuSans-74"/>
      <use x="505.273438" xlink:href="#DejaVuSans-65"/>
      <use x="566.796875" xlink:href="#DejaVuSans-6e"/>
     </g>
    </g>
    <g id="patch_15">
     <path d="M 343.470313 135.812813
L 363.470313 135.812813
L 363.470313 128.812813
L 343.470313 128.812813
z
" style="fill:#ffc0cb;stroke:#cd853f;stroke-linejoin:miter;stroke-width:2;"/>
    </g>
    <g id="text_22">
     <!-- bar plot -->
     <g transform="translate(371.470313 135.812813)scale(0.1 -0.1)">
      <use xlink:href="#DejaVuSans-62"/>
      <use x="63.476562" xlink:href="#DejaVuSans-61"/>
      <use x="124.755859" xlink:href="#DejaVuSans-72"/>
      <use x="165.869141" xlink:href="#DejaVuSans-20"/>
      <use x="197.65625" xlink:href="#DejaVuSans-70"/>
      <use x="261.132812" xlink:href="#DejaVuSans-6c"/>
      <use x="288.916016" xlink:href="#DejaVuSans-6f"/>
      <use x="350.097656" xlink:href="#DejaVuSans-74"/>
     </g>
    </g>
   </g>
  </g>
 </g>
 <defs>
  <clipPath id="p27dc07d008">
   <rect height="380.52" width="390.6" x="63" y="60.48"/>
  </clipPath>
 </defs>
 <defs>
  <pattern height="72" id="hc9e77255b3" patternUnits="userSpaceOnUse" width="72" x="0" y="0">
   <rect fill="none" height="73" width="73" x="0" y="0"/>
   <path d="M -36 36
L 36 -36
M -24 48
L 48 -24
M -12 60
L 60 -12
M 0 72
L 72 0
M 12 84
L 84 12
M 24 96
L 96 24
M 36 108
L 108 36
" style="fill:#ff0000;stroke:#ff0000;stroke-linecap:butt;stroke-linejoin:miter;stroke-width:1.0;"/>
  </pattern>
 </defs>
</svg>
